<svg viewBox="0 0 300 300" version="1.1">
  <path class="is-light-source-facing" d="M180.6 35C180.6 35 180.2 34.6 180 34.5 178.2 33.4 175.5 34 174.3 34.3 174.1 34.4 170.9 35.4 165.6 37 160.5 22.1 151.3 8.4 135.2 8.4 134.8 8.4 134.3 8.4 133.9 8.5 129.3 2.4 123.6-0.2 118.7-0.2 81.3-0.2 63.4 46.6 57.8 70.4 43.2 74.9 32.9 78.1 31.6 78.5 23.4 81.1 23.2 81.4 22.1 89 21.3 94.8 0 259.2 0 259.2L165.7 290.3 180.6 35ZM156.5 39.8C152.3 41.1 147.6 42.6 142.5 44.2 142.5 43.2 142.5 42.2 142.5 41.2 142.5 31.9 141.2 24.4 139.1 18.5 147.4 19.6 152.9 29 156.5 39.8L156.5 39.8 156.5 39.8ZM128.9 20.4C131.2 26.1 132.7 34.4 132.7 45.6 132.7 46.2 132.6 46.7 132.6 47.2 123.5 50.1 113.6 53.1 103.7 56.2 109.3 34.7 119.7 24.3 128.9 20.4L128.9 20.4 128.9 20.4ZM117.7 9.8C119.3 9.8 121 10.4 122.5 11.5 110.5 17.1 97.6 31.3 92.2 59.7 84.3 62.2 76.5 64.6 69.3 66.8 75.7 45.2 90.8 9.8 117.7 9.8ZM124.2 136.5C124.2 136.5 114.5 131.3 102.6 131.3 85.2 131.3 84.3 142.3 84.3 145 84.3 160.1 123.5 165.8 123.5 201.1 123.5 228.8 105.9 246.6 82.2 246.6 53.8 246.6 39.2 228.9 39.2 228.9L46.8 203.8C46.8 203.8 61.8 216.6 74.4 216.6 82.6 216.6 86 210.1 86 205.4 86 185.7 53.8 184.9 53.8 152.6 53.8 125.5 73.3 99.2 112.6 99.2 127.8 99.2 135.2 103.6 135.2 103.6L124.2 136.5Z"/>
  <path class="is-not-light-source-facing" d="M197.9 52.2L180.6 35.1 165.7 290.3 255.5 270.9C255.5 270.9 224 57.8 223.8 56.3 223.6 54.9 222.3 54.1 221.2 54 220.2 53.9 197.9 52.2 197.9 52.2Z"/>
</svg>
