<svg viewBox="0 0 130 130" xmlns="http://www.w3.org/2000/svg">
  <g fill="none" fill-rule="evenodd">
    <path d="M62.272 6.56c.693 0 1.39.235 2.06.695-5.146 2.42-10.66 8.52-12.99 20.696l-9.807 3.038C44.263 21.7 50.74 6.56 62.272 6.56zm4.77 4.515c.987 2.474 1.63 6.024 1.63 10.815 0 .245-.003.47-.005.696L56.26 26.428c2.39-9.22 6.867-13.673 10.782-15.353zm11.843 8.35c-1.783.55-3.81 1.178-6.007 1.858.002-.423.003-.84.003-1.295 0-3.97-.55-7.166-1.434-9.7 3.552.446 5.917 4.486 7.44 9.136zm28.832 7.066c-.086-.625-.634-.97-1.087-1.01-.452-.037-10.02-.746-10.02-.746s-6.645-6.597-7.374-7.327c-.73-.73-2.155-.508-2.708-.345-.082.024-1.452.447-3.72 1.148-2.22-6.387-6.136-12.257-13.028-12.257-.19 0-.386.008-.583.02-1.96-2.593-4.387-3.72-6.484-3.72-16.054 0-23.724 20.07-26.13 30.27-6.237 1.932-10.67 3.306-11.235 3.484-3.483 1.092-3.592 1.202-4.05 4.483-.344 2.484-9.455 72.944-9.455 72.944l70.995 13.302 38.468-8.322s-13.504-91.297-13.59-91.923z" fill="#1E1E1E"/>
    <path d="M106.63 25.48c-.452-.037-10.02-.746-10.02-.746s-6.645-6.597-7.374-7.326c-.273-.273-.64-.412-1.026-.472l-5.368 109.8 38.464-8.322s-13.504-91.296-13.59-91.923c-.085-.625-.633-.97-1.086-1.01" fill="#000"/>
    <path d="M69.78 46.736l-4.743 14.11s-4.156-2.22-9.25-2.22c-7.468 0-7.844 4.688-7.844 5.87 0 6.443 16.797 8.912 16.797 24.006 0 11.875-7.53 19.522-17.687 19.522-12.188 0-18.42-7.585-18.42-7.585l3.264-10.782s6.406 5.5 11.812 5.5c3.53 0 4.968-2.78 4.968-4.813 0-8.406-13.78-8.78-13.78-22.593 0-11.625 8.342-22.875 25.186-22.875 6.49 0 9.696 1.86 9.696 1.86" fill="#FFF"/>
  </g>
</svg>
