<svg viewBox="0 0 300 300" version="1.1">
  <path class="is-light-source-facing" d="M180.64537,35 C180.64537,35 180.225897,34.6347397 180,34.4961383 C178.193727,33.4464542 175.465821,34.0001685 174.325836,34.336186 C174.134476,34.3921937 170.937371,35.3793293 165.646977,37.0152206 C160.466266,22.1101737 151.325344,8.41162582 135.241802,8.41162582 C134.798408,8.41162582 134.341011,8.43029505 133.883615,8.45596525 C129.309654,2.40713457 123.643542,-0.220559627 118.74987,-0.220559627 C81.285392,-0.220559627 63.3862673,46.6135387 57.7738299,70.414474 C43.2164974,74.9254268 32.8737437,78.1318671 31.5528956,78.5472575 C23.4271131,81.0956074 23.1704111,81.3523094 22.1039313,89.0090275 C21.2988208,94.8058236 0.0369009009,259.235071 0.0369009009,259.235071 L165.714653,290.277334 L180.64537,35 Z M156.48972,39.8482763 C152.328815,41.1364532 147.598499,42.5996542 142.471461,44.1865388 C142.476129,43.1994032 142.480796,42.2262696 142.480796,41.1644571 C142.480796,31.8998514 141.194953,24.4414939 139.132003,18.5280151 C147.418807,19.5688247 152.937899,29 156.48972,39.8482763 L156.48972,39.8482763 L156.48972,39.8482763 Z M128.852258,20.3646006 C131.155574,26.1380602 132.65378,34.4225312 132.65378,45.6030666 C132.65378,46.1748118 132.649112,46.6975503 132.644445,47.2272897 C123.52686,50.0510108 113.620499,53.1174319 103.690802,56.1931876 C109.265901,34.6768995 119.716003,24.2851391 128.852258,20.3646006 L128.852258,20.3646006 L128.852258,20.3646006 Z M117.720729,9.8281537 C119.337951,9.8281537 120.966841,10.3765623 122.525722,11.4500431 C110.519073,17.099819 97.6489725,31.3304399 92.2138928,59.7473424 C84.2701352,62.2070135 76.506069,64.6106769 69.3277499,66.834649 C75.6939575,45.1596724 90.8113669,9.8281537 117.720729,9.8281537 Z M124.173282,136.510551 C124.173282,136.510551 114.474617,131.334507 102.586984,131.334507 C85.1592573,131.334507 84.2818035,142.272342 84.2818035,145.028387 C84.2818035,160.066452 123.48252,165.828244 123.48252,201.052414 C123.48252,228.764553 105.90544,246.610004 82.2048516,246.610004 C53.7646126,246.610004 39.2212821,228.90924 39.2212821,228.90924 L46.8359944,203.750118 C46.8359944,203.750118 61.7853808,216.585214 74.4011133,216.585214 C82.6435785,216.585214 86,210.095323 86,205.353338 C86,185.736644 53.8369559,184.861524 53.8369559,152.629098 C53.8369559,125.500372 73.3089633,99.246767 112.614694,99.246767 C127.760108,99.246767 135.241802,103.585029 135.241802,103.585029 L124.173282,136.510551 Z"></path>
  <path class="is-not-light-source-facing" d="M197.853734,52.2399781 L180.64537,35.1412966 L165.723988,290.275001 L255.485648,270.856667 C255.485648,270.856667 223.971987,57.8010751 223.773626,56.3402078 C223.572932,54.8793405 222.29409,54.0718963 221.236945,54 C220.182133,53.8945386 197.853734,52.2399781 197.853734,52.2399781 Z"></path>
</svg>
