<svg viewBox="50 50 400 425" version="1.1">
  <path d="M345.7 126.6c-21-13.1-40.9-18.3-60.7-31.4 -12.3-8.3-29.4-28.2-43.7-45.2 -2.8 27.4-11.1 38.5-20.6 46.4 -20.2 15.9-32.9 20.6-50.4 30.2C155.6 134.1 75.8 181.8 75.8 284.2 75.8 386.6 161.9 462 257.6 462S436.2 392.5 436.2 287.4C436.2 182.2 358.4 134.5 345.7 126.6zM348 424.6c-2 2-20.2 14.7-41.7 16.7s-50.4 3.2-67.9-12.7c-2.8-2.8-2-6.7 0-8.3 2-1.6 3.6-2.8 6-2.8 2.4 0 2 0 3.2 0.8 7.9 6.4 19.8 11.5 45.2 11.5 25.4 0 43.3-7.1 51.2-13.1 3.6-2.8 5.2-0.4 5.6 1.2C350 419.5 350.8 421.9 348 424.6zM278.5 388.5c4.4-4 11.5-10.3 18.3-13.1 6.7-2.8 10.3-2.4 16.7-2.4s13.1 0.4 17.9 3.6c4.8 3.2 7.5 10.3 9.1 14.3 1.6 4 0 6.4-3.2 7.9 -2.8 1.6-3.2 0.8-6-4.4 -2.8-5.2-5.2-10.3-19.1-10.3 -13.9 0-18.3 4.8-25 10.3 -6.7 5.6-9.1 7.5-11.5 4.4C273.4 395.7 274.2 392.5 278.5 388.5zM383.7 391.7c-14.3-1.2-42.9-45.6-61.1-46.4 -23-0.8-73 48-112.3 48 -23.8 0-31-3.6-38.9-8.7 -11.9-8.3-17.9-21-17.5-38.5 0.4-31 29.4-59.9 65.9-60.3 46.4-0.4 78.6 46 102 45.6 19.8-0.4 58-39.3 76.6-39.3 19.8 0 25.4 20.6 25.4 32.9s-4 34.5-13.5 48.4C400.8 387.3 394.8 392.5 383.7 391.7z"/>
</svg>
