<svg xmlns="http://www.w3.org/2000/svg" viewBox="0 0 430.112 430.112">
  <path d="M71.232 197.39L200.388 67.46c32.425-32.603 84.976-32.603 117.384 0 7.762 8.173 7.397 21.397-.588 29.43-8.11 8.162-21.226 8.162-29.355 0l-1.96-2.273c-16.3-13.9-40.754-13.11-56.137 2.373L97.675 229.817c-8.697 8.06-21.83 8.06-29.932-.09-8.11-8.143-8.11-21.37 0-29.518 1.09-1.085 2.252-2.02 3.49-2.82zm289.968 2.824c-8.11-8.15-21.23-8.15-29.342 0-1.083 1.1-2.025 2.275-2.828 3.523l-128.637 129.4c-16.21 16.297-42.49 16.297-58.698 0l-.588-.094c-8.095-8.148-21.228-8.148-29.342 0-8.097 8.135-8.097 21.375 0 29.505 1.036 1.04 2.14 1.95 3.307 2.74 32.593 29.935 83.142 29.066 114.66-2.637L361.2 229.734c8.097-8.143 8.097-21.37 0-29.52zm-201.935 85.73c-1.23.81-2.404 1.745-3.48 2.828-8.11 8.14-8.11 21.37 0 29.505 8.1 8.148 21.23 8.148 29.93.103l132.058-132.85c16.21-16.298 42.49-16.298 58.685 0 16.228 16.304 16.228 42.747 0 59.045l-125.22 126.557c16.224 16.293 42.49 16.293 58.694 0l95.88-97.038c32.4-32.6 32.4-85.463 0-118.08-32.403-32.584-84.96-32.584-117.386 0l-129.16 129.93zm-17.575-11.85l131.47-132.916c8.106-8.158 8.106-21.382 0-29.515-8.097-8.158-21.244-8.158-29.342 0-1.092 1.076-2.025 2.263-2.82 3.512L112.352 244.58c-16.208 16.307-42.48 16.307-58.68 0-16.226-16.298-16.226-42.742 0-59.046l125.217-126.54c-16.202-16.313-42.49-16.313-58.698 0l-95.88 97.02c-32.414 32.617-32.414 85.48 0 118.08 32.42 32.614 84.99 32.614 117.38 0z"/>
</svg>
