<svg viewBox="0 0 256 197" version="1.1">
  <path d="M212.3 0C192.3 0 175.7 13.3 170.6 33.1 161.4 3.3 137.8 0 128 0 118.2 0 94.6 3.3 85.4 33.1 80.3 13.3 63.7 0 43.7 0 19.2 0 0 17.5 0 39.9 0 49.8 2.4 57.7 5.4 66.2L38.7 160.3C49.8 191.5 72.5 196.2 85 196.2 104.7 196.2 120 186.1 128 168.3 136 186.2 151.3 196.3 171 196.3 183.5 196.3 206.2 191.6 217.4 160.3L250.8 65.9 251.1 65.2C251.5 63.9 251.8 62.8 252.2 61.7 254 56.5 256 50.5 256 43.2 256 18.2 237.6 0 212.3 0L212.3 0ZM228.1 57.9L194.6 152.3C190.5 163.7 183.8 172.2 171 172.2 159 172.2 151.9 165.5 148.4 154.1L128.3 91.3 127.7 91.3 107.6 154.1C104.1 165.5 97 172.1 85 172.1 72.2 172.1 65.4 163.6 61.4 152.2L28.2 58.4C25.5 50.5 24.1 45.6 24.1 39.9 24.1 31.2 32.3 24.1 43.7 24.1 53.2 24.1 60 30.4 62.2 39.7L84.8 114.5 85.3 114.5 108.1 41.3C111.1 30.7 116.6 24.1 128 24.1 139.4 24.1 144.9 30.7 147.9 41.3L170.7 114.5 171.2 114.5 193.8 39.7C196 30.4 202.8 24.1 212.3 24.1 223.7 24.1 231.9 31.2 231.9 43.2 231.9 47.5 230 51.9 228.1 57.9L228.1 57.9Z"/>
</svg>
