<svg viewBox="0 0 123 123" version="1.1">
  <path d="M61.3 0C27.5 0 0 27.5 0 61.3 0 95 27.5 122.5 61.3 122.5 95 122.5 122.5 95 122.5 61.3 122.5 27.5 95 0 61.3 0ZM107.4 36C107.6 37.7 107.7 39.5 107.7 41.5 107.7 46.8 106.7 52.8 103.7 60.3L87.7 106.7C103.3 97.6 113.8 80.6 113.8 61.3 113.8 52.1 111.5 43.5 107.4 36ZM62.2 65.9L46.4 111.7C51.1 113.1 56.1 113.8 61.3 113.8 67.4 113.8 73.3 112.8 78.7 110.8 78.6 110.6 78.4 110.4 78.3 110.1L62.2 65.9ZM96.7 58.6C96.7 52.1 94.4 47.6 92.4 44.1 89.7 39.8 87.2 36.1 87.2 31.8 87.2 27 90.9 22.5 96.1 22.5 96.3 22.5 96.5 22.5 96.8 22.5 87.4 13.9 74.9 8.7 61.3 8.7 42.9 8.7 26.7 18.1 17.4 32.4 18.6 32.4 19.7 32.5 20.7 32.5 26.2 32.5 34.7 31.8 34.7 31.8 37.6 31.6 37.9 35.8 35.1 36.1 35.1 36.1 32.2 36.5 29.1 36.6L48.2 93.5 59.7 59.1 51.5 36.6C48.7 36.5 46 36.1 46 36.1 43.2 36 43.5 31.6 46.3 31.8 46.3 31.8 55 32.5 60.2 32.5 65.7 32.5 74.2 31.8 74.2 31.8 77 31.6 77.4 35.8 74.5 36.1 74.5 36.1 71.7 36.5 68.5 36.6L87.5 93.1 92.7 75.6C95 68.3 96.7 63.1 96.7 58.6ZM8.7 61.3C8.7 82.1 20.8 100 38.3 108.6L13.3 39.9C10.3 46.4 8.7 53.6 8.7 61.3Z" fill-rule="evenodd"/>
</svg>
