<svg viewBox="0 0 430 422" version="1.1">
  <path d="M308.584,49.669 C312.281,22 336.007,0.681 364.699,0.681 C396.002,0.681 421.398,26.055 421.398,57.369 C421.398,84.515 402.259,107.177 376.762,112.696 C380.817,123.499 382.957,134.784 382.906,146.068 C382.803,168.156 374.509,188.523 359.487,203.382 L354.09,208.738 L310.713,165.874 C314.43,162.178 316.571,160.037 316.571,160.037 C320.933,155.715 321.896,149.941 321.896,145.824 C321.958,136.546 317.574,126.829 309.956,119.159 C297.074,106.206 278.396,103.01 269.119,112.226 C269.119,112.226 216.444,164.481 172.494,208.072 L129.087,165.187 C173.119,121.483 226.182,68.9 226.182,68.9 C247.676,47.55 279.082,41.405 308.583,49.67 L308.584,49.669 Z M65.27,0.681 C94.003,0.681 117.668,22 121.385,49.669 C150.876,41.406 182.303,47.549 203.817,68.91 C203.817,68.91 205.824,70.927 209.377,74.399 L165.806,117.131 C162.622,113.977 160.86,112.226 160.86,112.226 C151.582,103.01 132.884,106.205 120.013,119.159 C112.425,126.829 108.032,136.546 108.053,145.824 C108.083,149.93 109.067,155.716 113.439,160.037 C113.439,160.037 167.301,213.5 211.016,256.846 L167.466,299.577 L70.473,203.372 C55.461,188.524 47.197,168.157 47.054,146.058 C47.023,134.773 49.153,123.489 53.168,112.686 C27.701,107.167 8.593,84.506 8.593,57.359 C8.603,26.045 33.978,0.681 65.271,0.681 L65.27,0.681 Z M146.904,380.144 C135.528,380.093 124.141,377.81 113.368,373.652 C109.067,400.655 85.679,421.309 57.427,421.309 C26.134,421.309 0.749,395.944 0.749,364.641 C0.749,335.18 23.247,310.973 51.97,308.229 C49.082,299.064 47.577,289.551 47.638,280.049 C47.72,258.003 56.024,237.604 71.006,222.777 C71.006,222.777 72.686,221.097 75.614,218.179 L118.806,261.249 C115.724,264.352 113.952,266.072 113.952,266.072 C109.59,270.434 108.637,276.209 108.637,280.296 C108.617,289.614 112.938,299.301 120.577,306.971 C128.185,314.671 137.873,319.095 147.13,319.136 C151.256,319.136 157.094,318.256 161.425,313.903 C161.425,313.903 214.161,261.587 258.132,217.985 L301.334,261.055 L204.351,357.219 C189.4,372.067 169.013,380.218 146.904,380.147 L146.904,380.144 Z M372.563,421.309 C344.321,421.309 320.923,400.645 316.622,373.652 C305.798,377.81 294.442,380.093 283.086,380.144 C260.988,380.226 240.61,372.075 225.609,357.216 L219.362,351.052 L263.128,308.546 C267.47,312.837 268.586,313.902 268.586,313.902 C272.948,318.254 278.682,319.135 282.83,319.135 C292.066,319.094 301.794,314.671 309.393,306.97 C317.052,299.3 321.395,289.613 321.333,280.295 C321.333,276.22 320.371,270.434 315.977,266.071 C315.977,266.071 265.596,214.236 221.421,170.46 L264.111,127.729 C308.113,171.372 358.974,222.777 358.974,222.777 C373.955,237.604 382.27,257.993 382.352,280.049 C382.434,289.551 380.888,299.064 378.01,308.229 C406.774,310.974 429.272,335.181 429.272,364.641 C429.262,395.955 403.836,421.309 372.563,421.309 L372.563,421.309 Z">
  </path>
</svg>
