<svg viewBox="0 0 531 696" xmlns="http://www.w3.org/2000/svg">
  <path d="M442.524 590.516c-20.325 19.54-62.036 34.058-102.014 34.734-1.51.026-2.99.04-4.478.04h-.013c-131.5-.008-166.58-100.385-166.58-159.698V283.328c0-1.503-1.22-2.722-2.727-2.722H103.13c-1.503 0-2.722-1.22-2.722-2.723v-83.03c0-1.11.695-2.1 1.73-2.502C170.1 165.9 208.05 113.33 218.033 32.03c.556-4.516 4.282-4.64 4.32-4.64h84.877c1.505 0 2.724 1.22 2.724 2.723V176.04c0 1.503 1.22 2.722 2.723 2.722H418.33c1.504 0 2.723 1.22 2.723 2.72v96.405c0 1.504-1.22 2.723-2.722 2.723H312.22c-1.502 0-2.72 1.22-2.72 2.722l.002 173.216c.625 39.002 19.5 58.773 56.104 58.773 14.75 0 31.642-3.433 47.065-9.325 1.446-.55 3.037.183 3.53 1.645l26.99 80.012c.34 1.01.103 2.126-.664 2.864zm-124.1 61.088c65.126 0 129.656-23.187 151.003-51.28l4.276-5.63-40.37-119.655c-.373-1.11-1.41-1.858-2.58-1.858h-90.187c-1.22 0-2.325-.778-2.635-1.96-1.05-3.99-1.672-8.868-1.77-14.896v-146.34c0-1.505 1.22-2.724 2.724-2.724h106.11c1.503 0 2.722-1.22 2.722-2.723V154.82c0-1.504-1.217-2.723-2.72-2.723h-105.66c-1.502 0-2.722-1.22-2.722-2.723V3.45c0-1.503-1.216-2.722-2.72-2.722H148.6c-13.25 0-28.54 9.827-30.775 28.042-9.25 75.33-43.798 120.52-108.72 142.217l-7.244 2.418c-1.11.37-1.86 1.41-1.86 2.583v128.55c0 1.505 1.22 2.724 2.728 2.724H69.03v158.33c0 126.39 87.54 186.012 249.393 186.012z" />
</svg>
