<svg viewBox="0 0 430 422" version="1.1">
  <path d="M308.6 49.7C312.3 22 336 0.7 364.7 0.7 396 0.7 421.4 26.1 421.4 57.4 421.4 84.5 402.3 107.2 376.8 112.7 380.8 123.5 383 134.8 382.9 146.1 382.8 168.2 374.5 188.5 359.5 203.4L354.1 208.7 310.7 165.9C314.4 162.2 316.6 160 316.6 160 320.9 155.7 321.9 149.9 321.9 145.8 322 136.5 317.6 126.8 310 119.2 297.1 106.2 278.4 103 269.1 112.2 269.1 112.2 216.4 164.5 172.5 208.1L129.1 165.2C173.1 121.5 226.2 68.9 226.2 68.9 247.7 47.6 279.1 41.4 308.6 49.7L308.6 49.7ZM65.3 0.7C94 0.7 117.7 22 121.4 49.7 150.9 41.4 182.3 47.5 203.8 68.9 203.8 68.9 205.8 70.9 209.4 74.4L165.8 117.1C162.6 114 160.9 112.2 160.9 112.2 151.6 103 132.9 106.2 120 119.2 112.4 126.8 108 136.5 108.1 145.8 108.1 149.9 109.1 155.7 113.4 160 113.4 160 167.3 213.5 211 256.8L167.5 299.6 70.5 203.4C55.5 188.5 47.2 168.2 47.1 146.1 47 134.8 49.2 123.5 53.2 112.7 27.7 107.2 8.6 84.5 8.6 57.4 8.6 26 34 0.7 65.3 0.7L65.3 0.7ZM146.9 380.1C135.5 380.1 124.1 377.8 113.4 373.7 109.1 400.7 85.7 421.3 57.4 421.3 26.1 421.3 0.7 395.9 0.7 364.6 0.7 335.2 23.2 311 52 308.2 49.1 299.1 47.6 289.6 47.6 280 47.7 258 56 237.6 71 222.8 71 222.8 72.7 221.1 75.6 218.2L118.8 261.2C115.7 264.4 114 266.1 114 266.1 109.6 270.4 108.6 276.2 108.6 280.3 108.6 289.6 112.9 299.3 120.6 307 128.2 314.7 137.9 319.1 147.1 319.1 151.3 319.1 157.1 318.3 161.4 313.9 161.4 313.9 214.2 261.6 258.1 218L301.3 261.1 204.4 357.2C189.4 372.1 169 380.2 146.9 380.1L146.9 380.1ZM372.6 421.3C344.3 421.3 320.9 400.6 316.6 373.7 305.8 377.8 294.4 380.1 283.1 380.1 261 380.2 240.6 372.1 225.6 357.2L219.4 351.1 263.1 308.5C267.5 312.8 268.6 313.9 268.6 313.9 272.9 318.3 278.7 319.1 282.8 319.1 292.1 319.1 301.8 314.7 309.4 307 317.1 299.3 321.4 289.6 321.3 280.3 321.3 276.2 320.4 270.4 316 266.1 316 266.1 265.6 214.2 221.4 170.5L264.1 127.7C308.1 171.4 359 222.8 359 222.8 374 237.6 382.3 258 382.4 280 382.4 289.6 380.9 299.1 378 308.2 406.8 311 429.3 335.2 429.3 364.6 429.3 396 403.8 421.3 372.6 421.3L372.6 421.3Z"/>
</svg>
