<svg class="logo" viewBox="0 0 1030 454" version="1.1" role="img" aria-label="Eager logo">
  <title>Eager logo</title>
  <desc>The logo for Eager, the Eager App Store, and Eager Platform Co.</desc>
  <defs>
    <linearGradient id="eager-logo-gradient-ffffff-f6f6f6-id-52283032" x1="0%" y1="0%" x2="100%" y2="100%">
      <stop stop-color="#ffffff" offset="0%"/>
      <stop stop-color="#f6f6f6" offset="100%"/>
    </linearGradient>
  </defs>
  <g fill-rule="evenodd">
    <path fill="url(#eager-logo-gradient-ffffff-f6f6f6-id-52283032)" d="M935.9 64.6C958.8 64.6 975.3 82.7 973.5 105.6L969.3 156.2C967.4 179.1 947.8 197.2 925 197.2L899.4 197.2 910.2 64.6 935.9 64.6ZM991.8 232.9C993.5 235.3 995.2 237.7 996.7 240.2 1006.7 256.4 1011.5 275.6 1009.8 295.9L997.5 445.2 940.5 445.2 952.8 295.9C954.6 273 938.1 254.9 915.2 254.9L889.6 254.9 873.9 445.2 816.8 445.2 851.8 20.8 852.9 8.1 865.6 8.1 935.6 8.1C989.5 8.1 1029.9 52.2 1025.4 106.2L1021.3 156.8C1019.6 176.7 1011.9 195.8 999.8 211.8 998.5 213.4 997.2 215 995.9 216.6 995.3 217.2 994.8 217.9 994.2 218.5 992.6 220.3 991.5 221.5 990.4 222.6 988.7 224.3 987.1 225.8 986.5 226.3 988.5 228.8 988.5 228.8 990.5 231.3 990.9 231.8 991.3 232.4 991.8 232.9ZM818.6 8.1L805.9 8.1 674.4 8.1 661.7 8.1 660.6 20.8 626.7 432.5 625.7 445.2 638.3 445.2 774.7 445.2 787.4 445.2 788.5 432.5 791.1 400.8 792.1 388.1 779.5 388.1 687.3 388.1 698.3 255.5 759.3 255.5 772 255.5 773.1 242.8 775.7 210.5 776.8 197.8 764.1 197.8 703.1 197.7 714 65.2 801.2 65.2 813.9 65.2 814.9 52.5 817.5 20.8 818.6 8.1ZM611.6 214L507.1 214 502.4 271.1 549.9 271 542.6 359.7C540.9 378.7 524 394.2 504.9 394.2 485.8 394.2 471.4 378.5 473 359.3L494.9 94C496.4 74.8 513.4 59.1 532.5 59.1 551.7 59.1 566.1 74.8 564.5 94L559 160.7 616.6 154.1 621.5 94C625.7 43.1 588.1 2 537.3 2 486.4 2 442 43.1 437.8 94L416 359.3C411.8 410.3 449.4 451.3 500.2 451.3 551.1 451.3 595.5 410.3 599.7 359.3L611.6 214ZM320.3 137.1L330.3 282.6 286.1 282.6C286.1 282.6 286.1 282.7 287.6 276.4L320.3 137.1ZM186.6 445.2L243.9 445.2 268.5 339.7 330.1 339.8 337.9 445.2 395.1 445.2 364.6 8.1 289.2 8.1 186.6 445.2ZM195.7 8.1L183 8.1 51.5 8.1 38.8 8.1 37.7 20.8 3.8 432.5 2.8 445.2 15.5 445.2 151.9 445.2 164.5 445.2 165.6 432.5 168.2 400.8 169.3 388.1 156.6 388.1 64.4 388.1 75.4 255.5 136.4 255.5 149.1 255.5 150.2 242.8 152.8 210.5 153.9 197.8 141.2 197.8 80.2 197.7 91.2 65.2 178.3 65.2 191 65.2 192 52.5 194.7 20.8 195.7 8.1Z"/>
  </g>
</svg>
