<svg viewBox="0 0 93 124" xmlns="http://www.w3.org/2000/svg" preserveAspectRatio="xMinYMin clip">
  <path d="M90.342 379.346c-.416-.438-.27-.862.33-.946l38.465-5.406c.6-.084.967.323.823.912l-9.062 36.888c-.144.587-.598.707-1.013.267 0 0-7.846-8.314-9.655-10.187-.166-.172-.364-.474-.732-.53-.367-.06-.8.06-.903.14-47.31 37.378-54.65 76.34-55.713 82.12-1.068 5.8-6.868 4.73-5.8-1.07 1.063-5.77 7.217-55.232 52.868-90.82.12-.095.466-.347.465-.617 0-.242-.335-.502-.44-.612l-9.633-10.138z" transform="matrix(1 0 0 -1 -42 489.438)" class="inner-stroke" fill-rule="evenodd"/>
</svg>
