<svg viewBox="50 50 400 425" version="1.1">
  <path d="M345.703,126.605c-21.036-13.098-40.882-18.258-60.729-31.356c-12.304-8.335-29.371-28.181-43.66-45.249 c-2.779,27.387-11.114,38.501-20.64,46.439c-20.243,15.876-32.944,20.64-50.408,30.166C155.58,134.146,75.8,181.776,75.8,284.18 C75.8,386.586,161.931,462,257.588,462S436.2,392.539,436.2,287.356C436.2,182.173,358.405,134.543,345.703,126.605z M347.996,424.645c-1.984,1.985-20.242,14.687-41.676,16.671s-50.409,3.175-67.873-12.701c-2.778-2.778-1.984-6.748,0-8.336 c1.984-1.587,3.572-2.778,5.954-2.778c2.381,0,1.984,0,3.175,0.794c7.938,6.351,19.846,11.511,45.249,11.511 c25.402,0,43.264-7.145,51.202-13.098c3.572-2.779,5.16-0.397,5.557,1.19C349.982,419.486,350.775,421.867,347.996,424.645z M278.536,388.526c4.366-3.969,11.511-10.32,18.258-13.099c6.748-2.778,10.32-2.381,16.671-2.381s13.098,0.396,17.861,3.572 c4.763,3.175,7.541,10.319,9.129,14.289c1.588,3.969,0,6.351-3.176,7.938c-2.778,1.587-3.175,0.793-5.953-4.366 c-2.778-5.16-5.16-10.32-19.053-10.32c-13.892,0-18.258,4.763-25.005,10.32c-6.748,5.557-9.13,7.541-11.511,4.366 C273.376,395.671,274.17,392.495,278.536,388.526z M383.719,391.702c-14.289-1.191-42.867-45.646-61.125-46.439 c-23.021-0.794-73.033,48.026-112.328,48.026c-23.815,0-30.959-3.572-38.898-8.731c-11.907-8.336-17.861-21.037-17.464-38.501 c0.397-30.96,29.372-59.935,65.888-60.332c46.439-0.396,78.59,46.043,102.008,45.646c19.846-0.396,57.95-39.295,76.605-39.295 c19.846,0,25.402,20.64,25.402,32.944s-3.969,34.532-13.495,48.424C400.786,387.336,394.833,392.495,383.719,391.702z">
  </path>
</svg>
